<svg id="Layer_1" data-name="Layer 1" xmlns="http://www.w3.org/2000/svg" xmlns:xlink="http://www.w3.org/1999/xlink" viewBox="0 0 512 512"><defs><linearGradient id="linear-gradient" x1="256" y1="512" x2="256" gradientUnits="userSpaceOnUse"><stop offset="0" stop-color="#231f20"/><stop offset="1" stop-color="#58595b"/></linearGradient></defs><title>help</title><path d="M412,126.06c0,16.73-3.23,33.07-11.18,47.92a149.08,149.08,0,0,1-25.72,34.61c-16.21,15.83-33.62,31.08-50.5,46.2a183.72,183.72,0,0,0-15.38,15.29,56.14,56.14,0,0,0-7.74,10.81l-.07.18a53.13,53.13,0,0,0-3.93,9.79c-1.82,6.33-3.24,13-4.64,19.45-4.39,23.78-19.12,37.54-43.69,37.54-12.14,0-23-4-31.8-12.35-9.95-9.53-13.18-22.65-13.18-36,0-15.68,2.19-31.64,8.36-46.15A117.76,117.76,0,0,1,234.49,219c6.07-6.48,13.14-12.45,19.91-18.18,8-6.77,16.05-13.43,23.9-20.42,12-10.7,38-34.41,35.26-52.41-2.47-16.78-10.34-31.52-26-39.17-16.77-8.18-37.38-5.82-53.82,2C214.45,100,200,116.69,194.41,137.45c-6.21,23.29-21.38,39.73-46.5,39.73a46,46,0,0,1-34.11-14.34c-8.36-8.64-13.83-19-13.83-31.26,0-22.08,7.73-42.69,19.33-61.23C133,48.58,152.47,32.12,174.9,19.86,201,5.62,229.94,0,259.54,0,286.89,0,314,4.67,338.72,16.63c22,10.49,40.55,25.44,54.08,45.83A113.94,113.94,0,0,1,412,126.06ZM248.41,382.21q-27.33,0-47.5,19.35t-20.14,45.88q0,26.54,20.14,45.54t47.5,19q27,0,47.17-19t20.14-45.54q0-26.51-20.14-45.88T248.41,382.21Z" fill="url(#linear-gradient)"/></svg>